<svg version="1.1" xmlns="http://www.w3.org/2000/svg" viewBox="0 0 812.4703925810754 53.50619842909521" width="812.4703925810754" height="53.50619842909521">
  <!-- svg-source:excalidraw -->
  
  <defs>
    <style class="style-fonts">
      @font-face {
        font-family: "Virgil";
        src: url("https://excalidraw.com/Virgil.woff2");
      }
      @font-face {
        font-family: "Cascadia";
        src: url("https://excalidraw.com/Cascadia.woff2");
      }
      @font-face {
        font-family: "Assistant";
        src: url("https://excalidraw.com/Assistant-Regular.woff2");
      }
    </style>
    
  </defs>
  <rect x="0" y="0" width="812.4703925810754" height="53.50619842909521" fill="#ffffff"></rect><g stroke-linecap="round" transform="translate(110.22654517237015 11.506198429095207) rotate(0 31.38100755778538 16)"><path d="M3.68 3.79 L65.79 3.64 L61.92 33.73 L-2.46 35.3" stroke="none" stroke-width="0" fill="#a5d8ff"></path><path d="M2.22 3.58 C20.07 -0.86, 37.47 2.79, 60.12 3.82 M0.72 0.06 C16.57 0.57, 35.26 2.27, 62.17 -1.86 M63.32 -3.59 C63.08 13.32, 60.88 23.73, 65.73 34.19 M62.19 -0.55 C63.17 13.32, 62.84 23.7, 63.81 33.74 M63.99 30.55 C45.13 30.33, 30.39 33.03, -1.09 28.24 M61.27 33.27 C37.33 31.36, 14.83 30, -0.04 31.88 M2.16 32.91 C0.78 20.86, -3.15 8.93, -0.7 -3.19 M1.23 31.28 C-1.01 23.21, -1.33 17.53, -0.99 -0.29" stroke="#1971c2" stroke-width="2" fill="none"></path></g><g transform="translate(120.7899791827922 16.96150848949958) rotate(0 20.81757354736328 10.544689939595628)"><text x="20.81757354736328" y="0" font-family="Virgil, Segoe UI Emoji" font-size="16.871503903353013px" fill="#1971c2" text-anchor="middle" style="white-space: pre;" direction="ltr" dominant-baseline="text-before-edge">data</text></g><g stroke-linecap="round" transform="translate(175.01310986369685 11.00006103515625) rotate(0 32.7307072749561 16)"><path d="M0 0 C0 0, 0 0, 0 0 M0 0 C0 0, 0 0, 0 0 M1.8 14.67 C4.8 8.42, 4.03 9.02, 9.09 2.92 M0.78 11.41 C2.35 10.62, 3.52 7.41, 9.39 -0.78 M3.16 20.36 C3.26 16.98, 14.62 8.41, 23.57 -2.73 M-0.68 24.52 C5.83 18.2, 12.12 10.93, 19.47 -0.75 M3.93 31.34 C16.9 23.02, 26.52 9.22, 31.34 2.84 M4.68 33.07 C11.23 23.83, 19.76 15.32, 31.16 -0.06 M12.29 34.52 C23.74 19.44, 34.01 13.6, 40.01 0.84 M13.23 33.84 C23.32 23.58, 30.91 14.75, 43.62 -0.6 M27.86 32.87 C35.54 17.48, 47.18 5.95, 53.33 2.87 M25.33 30.84 C32.62 22.53, 38.59 16.59, 53.28 -1.44 M39.2 34.17 C39.93 23.1, 53.33 18.37, 65.56 -3.07 M36.49 31.42 C43.32 23.61, 49.91 15.2, 62.12 -1.64 M43.36 28.6 C47.35 23.43, 52.74 19.78, 63.63 6.44 M46.79 31.9 C51.73 26.17, 55.31 21.18, 65.81 10.89 M56.69 30.63 C57.38 29.59, 59.61 24.55, 68.52 23.54 M57.32 31.35 C59.81 27.81, 62.65 24.25, 65.93 21.65" stroke="#ffc9c9" stroke-width="1" fill="none"></path><path d="M-0.35 3.3 C22.85 3.93, 49.95 2.72, 63.36 1.45 M0.87 1.61 C19.25 -1.8, 41.55 0.3, 67.39 0.28 M63.5 -1.45 C68.46 8.92, 67.77 16.31, 66.71 30.86 M65.09 0.86 C66.49 10.46, 64.31 15.76, 67.35 32.61 M63.62 31.84 C47.11 27.31, 34.42 32.67, -1.27 29.02 M66.1 30.39 C41.64 31.72, 18.26 33.76, -1.07 33.08 M-2.54 29.28 C-0.93 18.49, -3.64 10.5, -0.48 2.45 M-1.46 31.27 C-0.62 23.26, 2.21 17, 1.51 1.82" stroke="#e03131" stroke-width="2" fill="none"></path></g><g transform="translate(189.6844985961725 16.455371095560622) rotate(0 18.05931854248047 10.544689939595628)"><text x="18.05931854248047" y="0" font-family="Virgil, Segoe UI Emoji" font-size="16.871503903353013px" fill="#e03131" text-anchor="middle" style="white-space: pre;" direction="ltr" dominant-baseline="text-before-edge">next</text></g><g stroke-linecap="round" transform="translate(320.6265085512764 10.50613739393907) rotate(0 31.38100755778538 16)"><path d="M-0.36 -3.04 L62.08 -2.78 L59.08 33.4 L-0.84 28.69" stroke="none" stroke-width="0" fill="#a5d8ff"></path><path d="M-2.89 1.5 C12.92 -3.15, 30.65 1.95, 63.97 -2.84 M-1.62 -0.39 C12.04 -0.65, 25.16 0.02, 61.73 0.59 M61.58 -0.61 C62.8 11.75, 61.63 19.2, 65.02 31.8 M61.28 -1.34 C64.13 9.21, 64.02 16.94, 63.06 32.69 M59.62 32.63 C47.39 31.85, 30.29 34.7, -1.05 33.86 M63.21 33.44 C49.66 34.4, 34.84 33.13, -1.83 32.31 M3.96 34.32 C1.27 23.83, 3.73 16.42, -1.81 2.35 M-0.45 31.13 C-0.75 20.99, 1.5 10.21, -1.45 0.97" stroke="#1971c2" stroke-width="2" fill="none"></path></g><g transform="translate(331.18994256169844 15.961447454343443) rotate(0 20.81757354736328 10.544689939595628)"><text x="20.81757354736328" y="0" font-family="Virgil, Segoe UI Emoji" font-size="16.871503903353013px" fill="#1971c2" text-anchor="middle" style="white-space: pre;" direction="ltr" dominant-baseline="text-before-edge">data</text></g><g stroke-linecap="round" transform="translate(385.4130732426029 10) rotate(0 32.7307072749561 16)"><path d="M0 0 C0 0, 0 0, 0 0 M0 0 C0 0, 0 0, 0 0 M1.84 11.62 C2.03 7.23, 8.52 3.87, 7.52 -0.33 M-0.42 11.95 C3.3 7.62, 6.74 2.83, 10.67 -0.51 M2.44 26.61 C5 19.4, 17.33 9.3, 20.63 -2.29 M-1.5 22.19 C3.26 18.3, 11.24 14.77, 19.82 -1.34 M6.56 29.02 C9.65 24.62, 22.88 11.53, 35.2 -3.54 M2.31 32.47 C10.53 26.66, 14.04 20.05, 30.68 -1 M14.56 31.8 C27.31 18.27, 34.48 8.82, 40.67 -2.88 M15.5 33.8 C22.87 19.7, 34.45 10.33, 44.15 -0.21 M24.25 34.73 C36.17 20.51, 44.42 4.27, 52.95 2.12 M23.82 31.3 C33.67 26.42, 39.72 18.68, 55.06 -1.94 M36.38 28.42 C47.95 25.24, 57.68 7.13, 60.5 0.25 M37.19 32.4 C45.29 22.97, 54.74 11.79, 64.81 -2.18 M50.19 35.85 C51.98 25.77, 55.61 23.57, 66.44 9.75 M47.11 32.52 C52.97 25.22, 59.05 19.35, 65.46 9.29 M57.76 33.2 C63.03 26.63, 62.94 24.49, 66.71 20.77 M55.73 32.37 C59.29 30.14, 62.25 25.84, 67.38 22.61" stroke="#ffc9c9" stroke-width="1" fill="none"></path><path d="M-1.82 2.23 C23.31 -1.9, 40.59 -2.67, 62.56 -3.23 M-1.17 -0.89 C17.31 1.62, 36.39 1.6, 64.68 -0.59 M64.14 0.98 C67.7 8.91, 63.23 15.58, 65.95 29.04 M67.14 1.26 C66.33 8.15, 64.85 14.32, 65.06 30.43 M63.23 34.95 C43.75 33.89, 20.96 29.15, 2.2 32.9 M65.24 32.44 C39.29 33.42, 15.78 33.09, 1.9 33.98 M3.72 32.44 C-2.01 22.89, 2.11 11.25, 0.2 -0.91 M1.84 33.11 C-1.32 24.76, -0.05 14.07, -0.34 -1.39" stroke="#e03131" stroke-width="2" fill="none"></path></g><g transform="translate(400.0844619750785 15.455310060404372) rotate(0 18.05931854248047 10.544689939595628)"><text x="18.05931854248047" y="0" font-family="Virgil, Segoe UI Emoji" font-size="16.871503903353013px" fill="#e03131" text-anchor="middle" style="white-space: pre;" direction="ltr" dominant-baseline="text-before-edge">next</text></g><g stroke-linecap="round"><g transform="translate(248.950510378927 26.325160781637123) rotate(0 32 -0.873143406515311)"><path d="M-3.6 0.08 C15.89 2.53, 26.37 -4.19, 65.81 -2.02 M1.74 0.78 C15.82 1.47, 31.58 -2, 65.2 -2.86" stroke="#1e1e1e" stroke-width="2" fill="none"></path></g><g transform="translate(248.950510378927 26.325160781637123) rotate(0 32 -0.873143406515311)"><path d="M40.36 6.89 C48 6.16, 51.12 0.72, 66.1 -3 M43.03 7.24 C48.03 5.46, 53.83 1.68, 65.79 -3.42" stroke="#1e1e1e" stroke-width="2" fill="none"></path></g><g transform="translate(248.950510378927 26.325160781637123) rotate(0 32 -0.873143406515311)"><path d="M39.51 -10.19 C47.35 -6.9, 50.68 -8.32, 66.1 -3 M42.18 -9.84 C47.3 -7.66, 53.3 -7.49, 65.79 -3.42" stroke="#1e1e1e" stroke-width="2" fill="none"></path></g></g><mask></mask><g stroke-linecap="round" transform="translate(523.0264719301827 11.30618622206407) rotate(0 31.38100755778538 16)"><path d="M-1.17 3.95 L61.59 -0.2 L65.63 31.07 L-2.58 28.23" stroke="none" stroke-width="0" fill="#a5d8ff"></path><path d="M-0.42 0.91 C14.57 -3.18, 34.2 0.85, 66.43 -3.69 M-0.09 0.01 C22.87 -0.09, 43.77 0.42, 64.24 -0.13 M64.13 -2.37 C65.84 8.3, 63.31 16.23, 62.77 34.24 M62.14 0.51 C64.45 12.88, 64.13 24.06, 60.77 32.66 M59.71 31.34 C40.34 28.91, 27.86 32.49, -1.8 30.72 M62.56 31.48 C47.15 33.85, 29.2 33.03, -1.78 30.59 M-2.83 33.27 C-1.72 28.52, 0.77 19.5, -2.18 -3.63 M-1.18 33.67 C0.17 20.95, -1.15 9.24, 1.12 -1.99" stroke="#1971c2" stroke-width="2" fill="none"></path></g><g transform="translate(533.5899059406047 16.761496282468443) rotate(0 20.81757354736328 10.544689939595628)"><text x="20.81757354736328" y="0" font-family="Virgil, Segoe UI Emoji" font-size="16.871503903353013px" fill="#1971c2" text-anchor="middle" style="white-space: pre;" direction="ltr" dominant-baseline="text-before-edge">data</text></g><g stroke-linecap="round" transform="translate(587.8130366215091 10.800048828125) rotate(0 32.7307072749561 16)"><path d="M0 0 C0 0, 0 0, 0 0 M0 0 C0 0, 0 0, 0 0 M0.08 11.64 C5.44 5.74, 5.26 0.31, 8.24 -1.91 M0.01 12.07 C1.77 9.66, 5.33 4.71, 11.11 0.2 M1.16 20.43 C8.48 19.92, 10.88 6.23, 24.73 2.47 M0.28 23.27 C4.52 18.79, 8.45 13.16, 19.83 0.72 M-0.77 36.57 C6.8 21.66, 23.04 12.21, 30.85 -1.87 M1.31 31.89 C8.27 27.3, 13.85 17.02, 32.05 0.64 M11.47 31.15 C18.51 24.38, 28.46 14.95, 44.29 -2.45 M11.6 34.77 C24.21 19.6, 35.96 7.08, 43.35 -1.04 M26.46 37.07 C36.5 22.26, 42.84 13.08, 54.61 -2.74 M24.19 32.09 C33.33 22.01, 43.18 12.85, 54.38 1.02 M30.56 35.1 C41.4 27.11, 48.1 19.55, 65.35 2.73 M32.81 33.57 C47.4 21.84, 58.66 6.8, 63.61 -0.11 M42.13 36.86 C50.82 25.02, 61.64 15.88, 68.85 2.04 M44.02 33.71 C52.87 21.79, 61.88 12.91, 72.01 2.3 M58.25 30.1 C62.13 24.35, 68.09 24.18, 70.26 17.17 M53.83 33.09 C58.13 29.48, 59.51 27.02, 68.93 15.96" stroke="#ffc9c9" stroke-width="1" fill="none"></path><path d="M-1.95 0.31 C24.79 -2.47, 44.5 4.43, 69.44 -0.19 M-0.95 1.66 C21.15 -0.89, 37.52 -0.63, 63.54 0.69 M65.97 2.88 C65.95 9.94, 68.49 18.33, 69.09 30.76 M66.36 0.79 C63.86 11.07, 65.79 19.83, 65.49 30.47 M67.81 32.47 C45.1 29.7, 26.94 28.36, 2.16 31.59 M65.19 32.36 C45.76 31.36, 27.68 33.45, -1.9 30.59 M0.99 32.49 C-1.94 17.75, 3.65 11.96, -2.82 -2.36 M-0.96 33.9 C1.01 17.74, -0.7 9.44, -0.58 -0.1" stroke="#e03131" stroke-width="2" fill="none"></path></g><g transform="translate(602.4844253539848 16.255358888529372) rotate(0 18.05931854248047 10.544689939595628)"><text x="18.05931854248047" y="0" font-family="Virgil, Segoe UI Emoji" font-size="16.871503903353013px" fill="#e03131" text-anchor="middle" style="white-space: pre;" direction="ltr" dominant-baseline="text-before-edge">next</text></g><g stroke-linecap="round"><g transform="translate(454.55054700002074 26.264855904970034) rotate(0 31.199981689453125 -1.3885538162815863)"><path d="M-3.15 -2.45 C24.27 -2.32, 43.38 0.83, 64.28 -3.58 M-0.57 -1.26 C14.39 -1.31, 25.94 -1.25, 61.54 -1.16" stroke="#1e1e1e" stroke-width="2" fill="none"></path></g><g transform="translate(454.55054700002074 26.264855904970034) rotate(0 31.199981689453125 -1.3885538162815863)"><path d="M36.45 6.1 C47.43 3.47, 54.23 2.49, 62.48 -1.56 M37.75 6.7 C43.64 4.9, 47.77 3.42, 61.12 -0.36" stroke="#1e1e1e" stroke-width="2" fill="none"></path></g><g transform="translate(454.55054700002074 26.264855904970034) rotate(0 31.199981689453125 -1.3885538162815863)"><path d="M36.5 -11 C47.38 -7.5, 54.17 -2.34, 62.48 -1.56 M37.79 -10.4 C43.54 -8.56, 47.67 -6.41, 61.12 -0.36" stroke="#1e1e1e" stroke-width="2" fill="none"></path></g></g><mask></mask><g transform="translate(751.350412722677 15.65312362861016) rotate(0 25.55998992919922 12.5)"><text x="0" y="0" font-family="Virgil, Segoe UI Emoji" font-size="20px" fill="#1e1e1e" text-anchor="start" style="white-space: pre;" direction="ltr" dominant-baseline="text-before-edge">NULL</text></g><g stroke-linecap="round"><g transform="translate(659.3505347929895 26.85313583564141) rotate(0 42.39996337890625 0)"><path d="M-0.62 0.11 C29.69 3.84, 55.36 -2.54, 83.95 3.35 M1.92 0.36 C32.06 -0.23, 60.99 0.17, 85.79 -0.71" stroke="#1e1e1e" stroke-width="2" fill="none"></path></g><g transform="translate(659.3505347929895 26.85313583564141) rotate(0 42.39996337890625 0)"><path d="M62.18 8.4 C71.2 6.88, 77.82 0.74, 85.37 0.96 M63.45 8.53 C71.54 5.12, 78.95 1.97, 86.28 -1.07" stroke="#1e1e1e" stroke-width="2" fill="none"></path></g><g transform="translate(659.3505347929895 26.85313583564141) rotate(0 42.39996337890625 0)"><path d="M61.8 -8.69 C70.8 -4.66, 77.55 -5.24, 85.37 0.96 M63.07 -8.57 C71.17 -5.67, 78.72 -2.5, 86.28 -1.07" stroke="#1e1e1e" stroke-width="2" fill="none"></path></g></g><mask></mask><g stroke-linecap="round"><g transform="translate(9.750528689473867 30.05314804267266) rotate(0 43.19999694824219 -0.8000030517578125)"><path d="M0.37 2.76 C25.63 3.99, 56.54 2.04, 88.87 0.54 M0.25 -1.77 C30.4 1.37, 64.13 0.86, 84.94 -2.05" stroke="#1e1e1e" stroke-width="2" fill="none"></path></g><g transform="translate(9.750528689473867 30.05314804267266) rotate(0 43.19999694824219 -0.8000030517578125)"><path d="M62.48 9.93 C68.23 6.66, 76.8 2.4, 86.17 -0.98 M62.42 7.66 C69.93 5.1, 79.2 1.22, 84.2 -2.28" stroke="#1e1e1e" stroke-width="2" fill="none"></path></g><g transform="translate(9.750528689473867 30.05314804267266) rotate(0 43.19999694824219 -0.8000030517578125)"><path d="M60.96 -7.1 C67.21 -4.66, 76.28 -3.21, 86.17 -0.98 M60.9 -9.37 C68.93 -5.63, 78.76 -3.22, 84.2 -2.28" stroke="#1e1e1e" stroke-width="2" fill="none"></path></g></g><mask></mask></svg>