<?xml version="1.0"?>
<svg version="1.1" xmlns="http://www.w3.org/2000/svg" width="400px" height="200px" style="border: dashed 2px #aaa"><path fill="#0066cc" d="M32.833984375,109.638671875q0-2.966796875,0.2666015625-5.9404296875t1.1142578125-5.8583984375q0.24609375-0.861328125,0.642578125-1.7021484375t0.970703125-1.4970703125t1.3671875-1.06640625t1.88671875-0.41015625l0.287109375,0.02734375q1.17578125,0.1640625,1.736328125,0.9501953125t0.560546875,1.9619140625q0,0.314453125-0.0751953125,0.7861328125t-0.2392578125,0.9091796875t-0.4443359375,0.7451171875t-0.7041015625,0.3076171875q-0.19140625-0.02734375-0.3486328125-0.068359375t-0.2939453125-0.177734375q0.21875-0.478515625,0.3896484375-0.998046875t0.1708984375-1.189453125q0-0.24609375-0.041015625-0.62890625t-0.1572265625-0.7587890625t-0.3076171875-0.65625t-0.533203125-0.2802734375q-0.861328125,0-1.44921875,0.9638671875t-0.984375,2.4609375t-0.587890625,3.30859375t-0.2939453125,3.5t-0.1162109375,3.048828125t-0.013671875,1.9208984375q0,0.65625-0.013671875,1.44921875l0,0.177734375q0.013671875,0.697265625,0.095703125,1.326171875q0.109375,0.7109375,0.423828125,1.23046875t0.984375,0.6015625q0.205078125,0.02734375,0.396484375,0.02734375q0.79296875,0,1.435546875-0.451171875q0.79296875-0.560546875,1.408203125-1.4560546875t1.09375-1.96875t0.8818359375-2.0302734375t0.7861328125-1.5859375t0.79296875-0.62890625q0.13671875,0,0.41015625,0.0546875t0.2734375,0.259765625q0,0.0546875-0.02734375,0.150390625t-0.068359375,0.150390625q-0.369140625,1.44921875-0.9365234375,3.0078125t-1.44921875,2.8369140625t-2.16015625,2.0849609375t-3.0693359375,0.806640625q-1.28515625,0-2.0849609375-0.4853515625t-1.23046875-1.298828125t-0.587890625-1.8388671875t-0.1572265625-2.078125z M47.41736328125,106.26171875q-0.013671875-0.0546875-0.013671875-0.109375q0-1.421875,0.177734375-2.953125q0.19140625-1.599609375,0.5947265625-3.19921875t1.09375-2.8984375t1.681640625-2.1533203125t2.3994140625-1.0185546875q0.24609375-0.02734375,0.505859375-0.02734375q0.697265625,0,1.435546875,0.21875q1.025390625,0.287109375,1.66796875,1.01171875q0.724609375,0.0546875,1.162109375,0.57421875t0.65625,1.2578125t0.3212890625,1.5244140625t0.1572265625,1.3740234375q0.13671875,1.28515625,0.177734375,2.7890625q0.013671875,0.287109375,0.013671875,0.587890625q0,1.203125-0.13671875,2.419921875q-0.1640625,1.53125-0.587890625,2.9736328125t-1.17578125,2.6044921875t-1.9140625,1.9482421875t-2.81640625,0.9501953125q1.421875,0.642578125,2.7822265625,1.3603515625t2.8095703125,1.2236328125q0.13671875,0.0546875,0.3759765625,0.08203125t0.478515625,0.095703125t0.423828125,0.1640625t0.2119140625,0.30078125q0,0.1640625-0.1708984375,0.287109375t-0.41015625,0.2255859375t-0.4716796875,0.1572265625t-0.35546875,0.08203125l-0.21875,0l-0.3486328125,0t-0.3212890625-0.02734375t-0.1640625-0.08203125q-0.697265625-0.08203125-1.626953125-0.4921875t-1.8935546875-0.9365234375t-1.88671875-1.0458984375t-1.6474609375-0.833984375l-0.150390625-0.3828125q0.0546875-0.109375,0.1982421875-0.1982421875t0.2802734375-0.1435546875q-0.861328125-0.2734375-1.435546875-0.8203125t-0.9296875-1.2509765625t-0.546875-1.50390625t-0.2734375-1.6064453125q-0.109375-1.06640625-0.109375-2.529296875z M50.06970703125,106.2890625q0.02734375,1.134765625,0.109375,1.94140625q0.02734375,0.423828125,0.1572265625,1.052734375t0.3349609375,1.271484375t0.4990234375,1.189453125t0.6630859375,0.806640625q0.24609375,0.13671875,0.4853515625,0.205078125t0.4716796875,0.205078125q0.341796875-0.02734375,0.57421875-0.150390625t0.546875-0.177734375l0.02734375-0.02734375q0.984375-0.451171875,1.681640625-1.3056640625t1.1552734375-1.9345703125t0.7109375-2.32421875t0.3486328125-2.48828125q0.068359375-0.970703125,0.068359375-1.88671875l0-0.51953125q-0.02734375-1.162109375-0.109375-2.091796875q-0.109375-0.861328125-0.21875-1.7158203125t-0.423828125-1.6748046875q-0.560546875,0.13671875-0.8271484375,0.08203125t-0.4853515625-0.587890625q-0.08203125,0-0.1845703125-0.041015625t-0.1298828125-0.150390625q0-0.08203125,0.0546875-0.13671875q-0.560546875-0.560546875-1.17578125-0.642578125q-0.259765625-0.041015625-0.57421875-0.041015625q-0.396484375,0-0.875,0.068359375l-0.02734375,0q-0.697265625,0.505859375-1.189453125,1.4423828125t-0.8271484375,2.1259765625t-0.533203125,2.501953125t-0.2666015625,2.59765625q-0.0546875,0.90234375-0.0546875,1.75q0,0.328125,0.013671875,0.65625z M53.22791015625,114.08203125q0.068359375-0.02734375,0.205078125-0.02734375q-0.0546875,0-0.095703125,0.013671875t-0.109375,0.013671875z"/><path fill="#" d=""/></svg>
